<svg xmlns:dc="http://purl.org/dc/elements/1.1/" xmlns:cc="http://creativecommons.org/ns#" xmlns:rdf="http://www.w3.org/1999/02/22-rdf-syntax-ns#" xmlns:svg="http://www.w3.org/2000/svg" xmlns="http://www.w3.org/2000/svg" xmlns:sodipodi="http://sodipodi.sourceforge.net/DTD/sodipodi-0.dtd" xmlns:inkscape="http://www.inkscape.org/namespaces/inkscape" version="1.1" x="0px" y="0px" viewBox="0 0 100 125">
    <g transform="translate(0,-942.36218)">
        <path style="text-indent:0;text-transform:none;direction:ltr;block-progression:tb;baseline-shift:baseline;color:#000000;enable-background:accumulate;" d="m 39.994301,962.36216 c -16.518,0 -29.9943,13.47625 -29.9943,29.99426 0,16.51798 13.4763,29.99428 29.9943,29.99428 6.822,0 13.1348,-2.2927 18.184,-6.155 l 24.964,24.9952 c 1.5617,1.5616 4.124798,1.5618 5.686498,0 1.5616,-1.5617 1.5616,-4.1247 0,-5.6864 l -24.995298,-24.964 c 3.8623,-5.0493 6.1551,-11.36208 6.1551,-18.18408 0,-16.51801 -13.4764,-29.99426 -29.9943,-29.99426 z m 0,7.99847 c 12.1952,0 21.9958,9.80049 21.9958,21.99579 0,12.19518 -9.8006,21.99588 -21.9958,21.99588 -12.1952,0 -21.9958,-9.8007 -21.9958,-21.99588 0,-12.1953 9.8006,-21.99579 21.9958,-21.99579 z" fill="#d3d3d3" fill-opacity="1" stroke="none" marker="none" visibility="visible" display="inline" overflow="visible"/>
    </g>
</svg>